Coordinates
version=1
nRows=29
nColumns=22
inDegrees=yes

Units are S.I. units (second, meters, Newtons, ...)
If the header above contains a line with 'inDegrees', this indicates whether rotational values are in degrees (yes) or radians (no).

endheader
time	pelvis_tilt	pelvis_list	pelvis_rotation	pelvis_tx	pelvis_ty	pelvis_tz	hip_flexion_r	hip_adduction_r	hip_rotation_r	knee_angle_r	ankle_angle_r	subtalar_angle_r	hip_flexion_l	hip_adduction_l	hip_rotation_l	knee_angle_l	ankle_angle_l	subtalar_angle_l	lumbar_extension	lumbar_bending	lumbar_rotation
      2.29000000	      4.82252140	      4.13485267	    -33.33041952	     -0.17399117	      0.89039276	      0.04239713	      7.69967425	     -7.35375028	      2.79891378	    -63.26430334	      7.56696887	     -0.85381515	     14.81781363	      7.01039305	    -13.04138446	    -25.61442071	     11.50377184	     -9.22626688	    -11.28714051	     -7.49491448	      8.20263442
      2.30000000	      4.86360784	      3.94285041	    -33.19982626	     -0.16528349	      0.89216955	      0.04607674	      9.19075196	     -7.34302429	      2.46298048	    -64.07072168	      8.27135895	     -1.63255404	     13.64721791	      7.06043915	    -12.93402075	    -25.01840710	     11.86119637	     -9.11860056	    -11.49235806	     -7.24745092	      7.85234107
      2.31000000	      4.86485558	      3.72027798	    -33.00423124	     -0.15654745	      0.89390171	      0.04975315	     10.60989383	     -7.25383799	      2.09182022	    -64.54693032	      8.93738716	     -2.15490612	     12.49777919	      7.07215336	    -12.71412984	    -24.42745243	     12.17438162	     -9.03066430	    -11.65605930	     -6.93553516	      7.45821577
      2.32000000	      4.83506468	      3.45527815	    -32.78567905	     -0.14776697	      0.89557390	      0.05351446	     11.94251434	     -7.09246496	      1.69281093	    -64.69917564	      9.58904925	     -2.68199508	     11.34348620	      7.01461949	    -12.48598727	    -23.83361325	     12.50483211	     -8.94185592	    -11.78017307	     -6.56540894	      7.11430968
      2.33000000	      4.81232584	      3.20493884	    -32.56054864	     -0.13898304	      0.89711485	      0.05730965	     13.21405996	     -6.93269213	      1.31317684	    -64.58555448	     10.24442593	     -3.13220336	     10.18609882	      6.96063218	    -12.28292365	    -23.22911730	     12.83347353	     -8.84787671	    -11.88383792	     -6.21172727	      6.76040469
      2.34000000	      4.80124369	      2.96922877	    -32.29677376	     -0.13014234	      0.89852011	      0.06108475	     14.40669860	     -6.81312032	      0.88331766	    -64.21284737	     10.84202732	     -3.39625307	      9.01371014	      6.92565754	    -12.03438240	    -22.60165113	     13.13557486	     -8.75922374	    -11.97238788	     -5.86871714	      6.34925733
      2.35000000	      4.81261031	      2.74823118	    -32.07596552	     -0.12130381	      0.89976160	      0.06495885	     15.52552550	     -6.72580066	      0.46836192	    -63.59833410	     11.47198893	     -3.99969082	      7.81236897	      6.89265078	    -11.87213304	    -21.94754395	     13.42809554	     -8.62473476	    -12.05024508	     -5.56094256	      6.01750411
      2.36000000	      4.83616322	      2.56144783	    -31.84887037	     -0.11247797	      0.90078432	      0.06882669	     16.58785635	     -6.69849048	      0.02416861	    -62.76537592	     12.06976220	     -4.60530940	      6.62473915	      6.88420765	    -11.72579913	    -21.29706427	     13.72792039	     -8.48175237	    -12.11460072	     -5.29049700	      5.64609888
      2.37000000	      4.87006098	      2.39062327	    -31.61945062	     -0.10366242	      0.90160886	      0.07268499	     17.57477757	     -6.71801519	     -0.46143242	    -61.70901508	     12.61010401	     -5.19124481	      5.44371678	      6.88954155	    -11.55245268	    -20.65277420	     14.00287292	     -8.33681639	    -12.17653659	     -5.03527613	      5.24787850
      2.38000000	      4.90754556	      2.23760046	    -31.42218060	     -0.09489071	      0.90219386	      0.07660807	     18.49644927	     -6.76569670	     -0.95895793	    -60.43907350	     13.17598865	     -6.02296025	      4.29321626	      6.88998562	    -11.45000816	    -20.04891166	     14.31445437	     -8.14873391	    -12.22597833	     -4.80690042	      4.89727267
      2.39000000	      4.93700143	      2.11692524	    -31.25762831	     -0.08618626	      0.90249456	      0.08059785	     19.37900578	     -6.83943764	     -1.45676961	    -58.97849625	     13.75429069	     -6.96516216	      3.21134217	      6.89133853	    -11.41769469	    -19.51965820	     14.67362642	     -7.93397481	    -12.24810386	     -4.61305851	      4.55618268
      2.40000000	      4.97435137	      1.96474418	    -31.04860465	     -0.07745935	      0.90266070	      0.08456666	     20.11869620	     -6.92648034	     -2.07698314	    -57.27963562	     14.21360102	     -7.57537914	      2.12989824	      6.86794407	    -11.27198520	    -19.03573805	     15.01883491	     -7.75117057	    -12.30098567	     -4.38486352	      4.18244458
      2.41000000	      5.01972780	      1.82964787	    -30.87841555	     -0.06882301	      0.90259097	      0.08865374	     20.78103306	     -7.00458967	     -2.66547791	    -55.39027097	     14.72042157	     -8.36950568	      1.08966905	      6.84082056	    -11.20094743	    -18.61936123	     15.42096720	     -7.51426932	    -12.35683814	     -4.19075923	      3.81430342
      2.42000000	      5.05364811	      1.67146251	    -30.65634490	     -0.06017603	      0.90234821	      0.09273538	     21.32480781	     -7.09992460	     -3.41603951	    -53.29436615	     15.08831962	     -8.74759432	      0.09317917	      6.77477005	    -11.04959509	    -18.28939887	     15.86465226	     -7.34368742	    -12.42058601	     -3.96599380	      3.44638077
      2.43000000	      5.10006067	      1.50656367	    -30.45882916	     -0.05160520	      0.90194322	      0.09695125	     21.75715021	     -7.16659931	     -4.17375436	    -51.01106981	     15.43799745	     -9.07843844	     -0.89560626	      6.69479866	    -10.90850797	    -17.99934654	     16.33132264	     -7.16638256	    -12.50372863	     -3.75588158	      3.09227530
      2.44000000	      5.15085993	      1.32704219	    -30.26266131	     -0.04308316	      0.90138827	      0.10128874	     22.07604358	     -7.21356585	     -5.00655228	    -48.55508204	     15.72367665	     -9.26111700	     -1.86824048	      6.58772512	    -10.75017786	    -17.76432886	     16.82536882	     -7.00723027	    -12.60235274	     -3.55015742	      2.75376484
      2.45000000	      5.21552398	      1.12636168	    -30.06850439	     -0.03461209	      0.90072082	      0.10573768	     22.26974739	     -7.23211760	     -5.91290237	    -45.93609658	     15.93922510	     -9.27000402	     -2.84606508	      6.45558227	    -10.57650219	    -17.56381533	     17.33064723	     -6.86415114	    -12.73304834	     -3.34305791	      2.44207273
      2.46000000	      5.27173647	      0.91357563	    -29.86927530	     -0.02618122	      0.89990592	      0.11029091	     22.37114337	     -7.21510768	     -6.90374309	    -43.18156122	     16.09252080	     -9.09551857	     -3.78565989	      6.28762509	    -10.40785831	    -17.43380780	     17.89386409	     -6.75155355	    -12.86646733	     -3.12900724	      2.12512201
      2.47000000	      5.38699025	      0.66514114	    -29.69842866	     -0.01774437	      0.89910463	      0.11502049	     22.30181308	     -7.16819865	     -7.99122776	    -40.29636416	     16.14017470	     -8.64521283	     -4.82620799	      6.11744565	    -10.21173434	    -17.26151729	     18.36046683	     -6.62823034	    -13.07488659	     -2.93252217	      1.91476603
      2.48000000	      5.48776180	      0.41357355	    -29.53367092	     -0.00935204	      0.89816192	      0.11989141	     22.16932019	     -7.06196524	     -9.13214420	    -37.33077412	     16.14336538	     -7.96778819	     -5.82108550	      5.91477626	    -10.03299759	    -17.15547289	     18.85965269	     -6.51019160	    -13.27338699	     -2.73979526	      1.69978393
      2.49000000	      5.58519638	      0.14706065	    -29.37860692	     -0.00095917	      0.89712905	      0.12491558	     21.96293597	     -6.89242311	    -10.35414696	    -34.31642067	     16.07182467	     -7.17973379	     -6.80511756	      5.68014483	     -9.87115375	    -17.08827584	     19.35703461	     -6.38847249	    -13.47182145	     -2.54592683	      1.53017430
      2.50000000	      5.68121141	     -0.13381612	    -29.23923160	      0.00740954	      0.89601342	      0.13011019	     21.69826795	     -6.64276733	    -11.60284784	    -31.29786701	     15.94740694	     -6.26751754	     -7.78162959	      5.41402175	     -9.72611487	    -17.05366169	     19.83814312	     -6.23818164	    -13.67441559	     -2.35377288	      1.41702111
      2.51000000	      5.76425280	     -0.41429292	    -29.12671058	      0.01576217	      0.89478770	      0.13547317	     21.41572604	     -6.30589079	    -12.79375637	    -28.33014138	     15.78346289	     -5.26588595	     -8.72851838	      5.12782586	     -9.61722329	    -17.06172439	     20.30285128	     -6.04865218	    -13.85647488	     -2.17148232	      1.33542023
      2.52000000	      5.79938077	     -0.67423340	    -29.04448274	      0.02404675	      0.89339864	      0.14100036	     21.19052530	     -5.87716127	    -13.84235507	    -25.48709503	     15.52799310	     -4.06764613	     -9.58307604	      4.81641714	     -9.58083696	    -17.14074707	     20.72363562	     -5.79173018	    -13.97888106	     -2.00179958	      1.28831840
      2.53000000	      5.84439217	     -0.93945223	    -28.97445447	      0.03234466	      0.89194600	      0.14667128	     20.95628933	     -5.38701780	    -14.75439697	    -22.82401415	     15.36305472	     -3.14962241	    -10.44829198	      4.49785729	     -9.54458064	    -17.23487685	     21.15875244	     -5.54842936	    -14.10902413	     -1.84468296	      1.27811992
      2.54000000	      5.83461868	     -1.17373745	    -28.93136976	      0.04060742	      0.89034039	      0.15245245	     20.82259060	     -4.84055052	    -15.42675793	    -20.41059943	     15.13834224	     -2.14142933	    -11.20494159	      4.16874852	     -9.56288278	    -17.41048626	     21.55210957	     -5.24869277	    -14.16422623	     -1.69633004	      1.30776186
      2.55000000	      5.78641401	     -1.36713871	    -28.90400661	      0.04888243	      0.88863320	      0.15832076	     20.77986306	     -4.28109784	    -15.83818607	    -18.29443301	     14.88718442	     -1.13925854	    -11.88800679	      3.85587213	     -9.58775317	    -17.62001303	     21.88518767	     -4.91283600	    -14.15141460	     -1.56960116	      1.33631935
      2.56000000	      5.71529549	     -1.55443522	    -28.86928192	      0.05721335	      0.88688766	      0.16425788	     20.77903083	     -3.71304129	    -16.03523293	    -16.49680480	     14.72717442	     -0.34259307	    -12.50495402	      3.52472828	     -9.61918900	    -17.91951612	     22.19213124	     -4.61550943	    -14.10569442	     -1.43412470	      1.38321890
      2.57000000	      5.61364428	     -1.71758026	    -28.82396424	      0.06563108	      0.88513491	      0.17024760	     20.82982124	     -3.16818692	    -16.02097496	    -15.03685877	     14.56084075	      0.35213520	    -13.05718322	      3.19510997	     -9.62581501	    -18.27111880	     22.43446436	     -4.32397657	    -14.00426781	     -1.29574057	      1.41272149
